<svg width="49" height="48" viewBox="0 0 49 48" fill="none" xmlns="http://www.w3.org/2000/svg">
<g id="icon/dew_point">
<mask id="mask0_713_1465" style="mask-type:alpha" maskUnits="userSpaceOnUse" x="0" y="0" width="49" height="48">
<rect id="Bounding box" x="0.666504" width="48" height="48" fill="#D9D9D9"/>
</mask>
<g mask="url(#mask0_713_1465)">
<path id="dew_point" d="M31.6667 21.5C30.9667 21.5 30.375 21.2583 29.8917 20.775C29.4084 20.2917 29.1667 19.7 29.1667 19C29.1667 18.5667 29.2417 18.1667 29.3917 17.8C29.5417 17.4333 29.7417 17.075 29.9917 16.725C30.2417 16.375 30.5167 16.0417 30.8167 15.725C31.1167 15.4083 31.4 15.0833 31.6667 14.75C31.9334 15.0833 32.2167 15.4083 32.5167 15.725C32.8167 16.0417 33.0917 16.375 33.3417 16.725C33.5917 17.075 33.7917 17.4333 33.9417 17.8C34.0917 18.1667 34.1667 18.5667 34.1667 19C34.1667 19.7 33.925 20.2917 33.4417 20.775C32.9584 21.2583 32.3667 21.5 31.6667 21.5ZM40.1667 14.9C39.4667 14.9 38.875 14.6583 38.3917 14.175C37.9084 13.6917 37.6667 13.1 37.6667 12.4C37.6667 11.9667 37.7417 11.5667 37.8917 11.2C38.0417 10.8333 38.2417 10.475 38.4917 10.125C38.7417 9.775 39.0167 9.44167 39.3167 9.125C39.6167 8.80833 39.9 8.48333 40.1667 8.15C40.4334 8.48333 40.7167 8.80833 41.0167 9.125C41.3167 9.44167 41.5917 9.775 41.8417 10.125C42.0917 10.475 42.2917 10.8333 42.4417 11.2C42.5917 11.5667 42.6667 11.9667 42.6667 12.4C42.6667 13.1 42.425 13.6917 41.9417 14.175C41.4584 14.6583 40.8667 14.9 40.1667 14.9ZM40.1667 28C39.4667 28 38.875 27.7583 38.3917 27.275C37.9084 26.7917 37.6667 26.2 37.6667 25.5C37.6667 25.0667 37.7417 24.6667 37.8917 24.3C38.0417 23.9333 38.2417 23.575 38.4917 23.225C38.7417 22.875 39.0167 22.5417 39.3167 22.225C39.6167 21.9083 39.9 21.5833 40.1667 21.25C40.4334 21.5833 40.7167 21.9083 41.0167 22.225C41.3167 22.5417 41.5917 22.875 41.8417 23.225C42.0917 23.575 42.2917 23.9333 42.4417 24.3C42.5917 24.6667 42.6667 25.0667 42.6667 25.5C42.6667 26.2 42.425 26.7917 41.9417 27.275C41.4584 27.7583 40.8667 28 40.1667 28ZM17.4667 41.95C14.9334 41.95 12.7834 41.0667 11.0167 39.3C9.25003 37.5333 8.3667 35.3833 8.3667 32.85C8.3667 31.25 8.7667 29.7417 9.5667 28.325C10.3667 26.9083 11.4667 25.7667 12.8667 24.9V10.6C12.8667 9.33333 13.3167 8.25 14.2167 7.35C15.1167 6.45 16.2 6 17.4667 6C18.7334 6 19.8167 6.45 20.7167 7.35C21.6167 8.25 22.0667 9.33333 22.0667 10.6V24.9C23.4667 25.7667 24.5667 26.9083 25.3667 28.325C26.1667 29.7417 26.5667 31.25 26.5667 32.85C26.5667 35.3833 25.6834 37.5333 23.9167 39.3C22.15 41.0667 20 41.95 17.4667 41.95ZM11.3667 32.85H23.5667C23.5667 31.5167 23.25 30.325 22.6167 29.275C21.9834 28.225 21.1334 27.4667 20.0667 27L19.0667 26.55V10.6C19.0667 10.1333 18.9167 9.75 18.6167 9.45C18.3167 9.15 17.9334 9 17.4667 9C17 9 16.6167 9.15 16.3167 9.45C16.0167 9.75 15.8667 10.1333 15.8667 10.6V26.55L14.8667 27C13.8 27.4667 12.95 28.2333 12.3167 29.3C11.6834 30.3667 11.3667 31.55 11.3667 32.85Z" fill="#083649"/>
</g>
</g>
</svg>
