<svg width="48" height="48" viewBox="0 0 48 48" fill="none" xmlns="http://www.w3.org/2000/svg">
<g id="icon/headphones">
<mask id="mask0_713_1454" style="mask-type:alpha" maskUnits="userSpaceOnUse" x="0" y="0" width="48" height="48">
<rect id="Bounding box" width="48" height="48" fill="#D9D9D9"/>
</mask>
<g mask="url(#mask0_713_1454)">
<path id="headphones" d="M16.4 42H9C8.2 42 7.5 41.7 6.9 41.1C6.3 40.5 6 39.8 6 39V24C6 21.5 6.475 19.1583 7.425 16.975C8.375 14.7917 9.65833 12.8917 11.275 11.275C12.8917 9.65833 14.7917 8.375 16.975 7.425C19.1583 6.475 21.5 6 24 6C26.5 6 28.8417 6.475 31.025 7.425C33.2083 8.375 35.1083 9.65833 36.725 11.275C38.3417 12.8917 39.625 14.7917 40.575 16.975C41.525 19.1583 42 21.5 42 24V39C42 39.8 41.7 40.5 41.1 41.1C40.5 41.7 39.8 42 39 42H31.6V27.2H39V24C39 19.8213 37.5447 16.2767 34.634 13.366C31.7233 10.4553 28.1787 9 24 9C19.8213 9 16.2767 10.4553 13.366 13.366C10.4553 16.2767 9 19.8213 9 24V27.2H16.4V42ZM13.4 30.2H9V39H13.4V30.2ZM34.6 30.2V39H39V30.2H34.6Z" fill="#083649"/>
</g>
</g>
</svg>
