<svg width="49" height="48" viewBox="0 0 49 48" fill="none" xmlns="http://www.w3.org/2000/svg">
<g id="icon/head_mounted_device">
<mask id="mask0_713_1449" style="mask-type:alpha" maskUnits="userSpaceOnUse" x="0" y="0" width="49" height="48">
<rect id="Bounding box" x="0.666504" width="48" height="48" fill="#D9D9D9"/>
</mask>
<g mask="url(#mask0_713_1449)">
<path id="head_mounted_device" d="M15.4665 36C13.3332 36 11.5248 35.2417 10.0415 33.725C8.55817 32.2083 7.8165 30.3667 7.8165 28.2V19.65C7.8165 18.003 8.3165 16.558 9.3165 15.315C10.3165 14.0717 11.6165 13.3 13.2165 13C15.1165 12.6333 17.0163 12.375 18.916 12.225C20.8157 12.075 22.7323 12 24.666 12C26.6 12 28.5253 12.075 30.442 12.225C32.3587 12.375 34.2668 12.6333 36.1665 13C37.7665 13.3 39.0665 14.075 40.0665 15.325C41.0665 16.575 41.5665 18.0167 41.5665 19.65V28.2C41.5665 30.3667 40.8248 32.2083 39.3415 33.725C37.8582 35.2417 36.0498 36 33.9165 36H31.8165C31.4055 36 30.9943 35.9667 30.583 35.9C30.172 35.8333 29.7832 35.7333 29.4165 35.6L26.1665 34.5C25.6945 34.3333 25.2028 34.25 24.6915 34.25C24.1802 34.25 23.6885 34.3333 23.2165 34.5L19.9665 35.6C19.5665 35.7333 19.1665 35.8333 18.7665 35.9C18.3665 35.9667 17.9457 36 17.504 36H15.4665ZM15.4665 33H17.5165C17.7732 33 18.0207 32.975 18.259 32.925C18.4973 32.875 18.7498 32.8167 19.0165 32.75C19.9832 32.4397 20.9248 32.112 21.8415 31.767C22.7582 31.4223 23.7122 31.25 24.7035 31.25C25.6948 31.25 26.6532 31.425 27.5785 31.775C28.5038 32.125 29.4332 32.45 30.3665 32.75C30.5998 32.8167 30.8357 32.875 31.074 32.925C31.3123 32.975 31.5598 33 31.8165 33H33.9165C35.2165 33 36.3165 32.525 37.2165 31.575C38.1165 30.625 38.5665 29.5 38.5665 28.2V19.65C38.5665 18.75 38.2915 17.95 37.7415 17.25C37.1915 16.55 36.4832 16.1167 35.6165 15.95C33.8165 15.5833 31.9998 15.3333 30.1665 15.2C28.3332 15.0667 26.4998 15 24.6665 15C22.8332 15 21.0082 15.0667 19.1915 15.2C17.3748 15.3333 15.5665 15.5833 13.7665 15.95C12.8998 16.1167 12.1915 16.55 11.6415 17.25C11.0915 17.95 10.8165 18.75 10.8165 19.65V28.2C10.8165 29.5 11.2665 30.625 12.1665 31.575C13.0665 32.525 14.1665 33 15.4665 33ZM2.6665 28.2V19.65H4.6665V28.2H2.6665ZM44.6665 28.2V19.65H46.6665V28.2H44.6665Z" fill="#083649"/>
</g>
</g>
</svg>
