<svg width="24" height="24" viewBox="0 0 24 24" fill="none" xmlns="http://www.w3.org/2000/svg">
<g id="icon/logo-instagram">
<mask id="mask0_517_1600" style="mask-type:alpha" maskUnits="userSpaceOnUse" x="0" y="0" width="24" height="24">
<rect id="Bounding box" width="24" height="24" fill="#D9D9D9"/>
</mask>
<g mask="url(#mask0_517_1600)">
<path id="logo" d="M7.85844 21.9301C6.79443 21.8799 6.06783 21.7101 5.43263 21.4605C4.77523 21.2043 4.21802 20.8605 3.66362 20.3041C3.10922 19.7477 2.76782 19.1901 2.51342 18.5317C2.26722 17.895 2.10042 17.1678 2.05342 16.1032C2.00642 15.0386 1.99602 14.6964 2.00122 11.9808C2.00642 9.26522 2.01842 8.92482 2.07002 7.85801C2.12082 6.79421 2.29002 6.06781 2.53962 5.4324C2.79622 4.775 3.13962 4.218 3.69622 3.6634C4.25282 3.1088 4.81003 2.76819 5.47003 2.51339C6.10603 2.26759 6.83343 2.09999 7.89784 2.05339C8.96224 2.00679 9.30484 1.99599 12.0197 2.00119C14.7345 2.00639 15.0763 2.01839 16.1429 2.06899C17.2095 2.11959 17.9321 2.28999 18.5677 2.53839C19.2251 2.7956 19.7825 3.1384 20.3367 3.6952C20.8909 4.252 21.2321 4.81 21.4863 5.4688C21.7327 6.10481 21.9001 6.83221 21.9463 7.89581C21.9929 8.96322 22.0039 9.30402 21.9987 12.0192C21.9935 14.7344 21.9813 15.0748 21.9307 16.1412C21.8801 17.2076 21.7107 17.9318 21.4613 18.5677C21.2043 19.2251 20.8613 19.7817 20.3049 20.3367C19.7485 20.8917 19.1901 21.2327 18.5315 21.4863C17.8951 21.7325 17.1681 21.9003 16.1037 21.9463C15.0393 21.9923 14.6967 22.0041 11.9809 21.9989C9.26504 21.9937 8.92504 21.9821 7.85844 21.9301ZM7.97524 3.8524C7.00023 3.8948 6.47083 4.0568 6.11803 4.1924C5.65083 4.3724 5.31803 4.59 4.96643 4.9382C4.61483 5.2864 4.39882 5.62041 4.21642 6.08661C4.07942 6.43941 3.91442 6.96821 3.86882 7.94321C3.81922 8.99702 3.80882 9.31342 3.80302 11.9832C3.79722 14.653 3.80742 14.969 3.85362 16.0232C3.89522 16.9974 4.05822 17.5274 4.19362 17.88C4.37362 18.3478 4.59043 18.6801 4.93943 19.0315C5.28843 19.3829 5.62143 19.5993 6.08803 19.7817C6.44043 19.9193 6.96923 20.0829 7.94384 20.1293C8.99844 20.1793 9.31444 20.1893 11.9839 20.1951C14.6533 20.2009 14.9701 20.1909 16.0251 20.1445C16.9993 20.1021 17.5295 19.9407 17.8817 19.8045C18.3491 19.6245 18.6817 19.4083 19.0331 19.0587C19.3845 18.7091 19.6011 18.3772 19.7835 17.9096C19.9213 17.5582 20.0849 17.0296 20.1309 16.0544C20.1811 14.9998 20.1925 14.6836 20.1973 12.0144C20.2021 9.34522 20.1927 9.02822 20.1465 7.97441C20.1039 6.99941 19.9423 6.46981 19.8065 6.11661C19.6265 5.6496 19.4095 5.3166 19.0603 4.9654C18.7111 4.6142 18.3785 4.3978 17.9117 4.2154C17.5597 4.078 17.0303 3.914 16.0565 3.8676C15.0019 3.818 14.6859 3.8076 12.0155 3.8018C9.34504 3.796 9.03004 3.8068 7.97544 3.8524M16.1275 17.3446C16.1279 17.1073 16.1986 16.8754 16.3308 16.6783C16.463 16.4811 16.6507 16.3276 16.8702 16.2372C17.0896 16.1467 17.331 16.1234 17.5637 16.1701C17.7964 16.2168 18.01 16.3315 18.1776 16.4997C18.3451 16.6678 18.459 16.8819 18.5049 17.1147C18.5507 17.3476 18.5265 17.5889 18.4352 17.808C18.344 18.0271 18.1898 18.2142 17.9922 18.3457C17.7946 18.4772 17.5624 18.5471 17.3251 18.5467C17.0069 18.546 16.702 18.419 16.4774 18.1936C16.2528 17.9682 16.1269 17.6628 16.1275 17.3446ZM6.86543 11.99C6.87103 9.15402 9.17424 6.86021 12.0097 6.86561C14.8451 6.87101 17.1405 9.17402 17.1351 12.01C17.1297 14.846 14.8259 17.1404 11.9901 17.1348C9.15424 17.1292 6.86003 14.8256 6.86543 11.99ZM8.66664 11.9936C8.66534 12.6529 8.85956 13.2978 9.22476 13.8467C9.58995 14.3956 10.1097 14.8239 10.7183 15.0774C11.3269 15.3309 11.997 15.3982 12.6439 15.2709C13.2908 15.1435 13.8853 14.8272 14.3525 14.362C14.8196 13.8967 15.1382 13.3034 15.2681 12.657C15.398 12.0106 15.3333 11.3403 15.0822 10.7307C14.8311 10.1211 14.4049 9.59963 13.8575 9.23226C13.31 8.8649 12.6659 8.66812 12.0067 8.66682C11.5689 8.6659 11.1352 8.75122 10.7304 8.91792C10.3257 9.08462 9.95768 9.32943 9.64752 9.63836C9.33736 9.9473 9.0911 10.3143 8.9228 10.7184C8.7545 11.1225 8.66745 11.5559 8.66664 11.9936Z" fill="#F6F8F9"/>
</g>
</g>
</svg>
