<svg width="24" height="24" viewBox="0 0 24 24" fill="none" xmlns="http://www.w3.org/2000/svg">
<g id="icon/logo-tiktok">
<mask id="mask0_517_1587" style="mask-type:alpha" maskUnits="userSpaceOnUse" x="0" y="0" width="24" height="24">
<rect id="Bounding box" width="24" height="24" fill="#D9D9D9"/>
</mask>
<g mask="url(#mask0_517_1587)">
<path id="logo" d="M17.7443 6.00883C16.6734 5.30649 15.9012 4.18226 15.6599 2.8724C15.608 2.58946 15.5791 2.29799 15.5791 2H12.162L12.1565 15.7798C12.0992 17.3229 10.8368 18.5616 9.2898 18.5616C8.80869 18.5616 8.356 18.4407 7.95715 18.2295C7.0428 17.7454 6.41711 16.7811 6.41711 15.6715C6.41711 14.0777 7.70588 12.7808 9.2893 12.7808C9.58494 12.7808 9.86862 12.83 10.1368 12.9143V9.40412C9.85915 9.36599 9.57696 9.34241 9.2893 9.34241C5.82133 9.34241 3 12.1814 3 15.6715C3 17.8126 4.06292 19.7074 5.68523 20.8532C6.70677 21.5751 7.94967 22 9.2898 22C12.7578 22 15.5791 19.1611 15.5791 15.6715V8.68372C16.9192 9.65144 18.5615 10.2218 20.3333 10.2218V6.7834C19.3791 6.7834 18.4902 6.49796 17.7443 6.00883Z" fill="#F6F8F9"/>
</g>
</g>
</svg>
