<svg width="49" height="48" viewBox="0 0 49 48" fill="none" xmlns="http://www.w3.org/2000/svg">
<g id="icon/photo_camera">
<mask id="mask0_713_1459" style="mask-type:alpha" maskUnits="userSpaceOnUse" x="0" y="0" width="49" height="48">
<rect id="Bounding box" x="0.333008" width="48" height="48" fill="#D9D9D9"/>
</mask>
<g mask="url(#mask0_713_1459)">
<path id="photo_camera" d="M24.308 34.65C26.7247 34.65 28.7497 33.8333 30.383 32.2C32.0163 30.5667 32.833 28.5417 32.833 26.125C32.833 23.7083 32.0163 21.6917 30.383 20.075C28.7497 18.4583 26.7247 17.65 24.308 17.65C21.8913 17.65 19.8747 18.4583 18.258 20.075C16.6413 21.6917 15.833 23.7083 15.833 26.125C15.833 28.5417 16.6413 30.5667 18.258 32.2C19.8747 33.8333 21.8913 34.65 24.308 34.65ZM24.308 31.65C22.7247 31.65 21.4163 31.125 20.383 30.075C19.3497 29.025 18.833 27.7083 18.833 26.125C18.833 24.5417 19.3497 23.2333 20.383 22.2C21.4163 21.1667 22.7247 20.65 24.308 20.65C25.8913 20.65 27.208 21.1667 28.258 22.2C29.308 23.2333 29.833 24.5417 29.833 26.125C29.833 27.7083 29.308 29.025 28.258 30.075C27.208 31.125 25.8913 31.65 24.308 31.65ZM7.33301 42C6.53301 42 5.83301 41.7 5.23301 41.1C4.63301 40.5 4.33301 39.8 4.33301 39V13.35C4.33301 12.5833 4.63301 11.8917 5.23301 11.275C5.83301 10.6583 6.53301 10.35 7.33301 10.35H14.683L18.333 6H30.333L33.983 10.35H41.333C42.0997 10.35 42.7913 10.6583 43.408 11.275C44.0247 11.8917 44.333 12.5833 44.333 13.35V39C44.333 39.8 44.0247 40.5 43.408 41.1C42.7913 41.7 42.0997 42 41.333 42H7.33301ZM7.33301 39H41.333V13.35H32.583L28.933 9H19.733L16.083 13.35H7.33301V39Z" fill="#083649"/>
</g>
</g>
</svg>
