<svg width="49" height="48" viewBox="0 0 49 48" fill="none" xmlns="http://www.w3.org/2000/svg">
<g id="icon/water_lock">
<mask id="mask0_713_1475" style="mask-type:alpha" maskUnits="userSpaceOnUse" x="0" y="0" width="49" height="48">
<rect id="Bounding box" x="0.333008" width="48" height="48" fill="#D9D9D9"/>
</mask>
<g mask="url(#mask0_713_1475)">
<path id="water_lock" d="M17.833 16.3H30.833V11.5C30.833 9.69433 30.2017 8.15967 28.939 6.896C27.6763 5.632 26.143 5 24.339 5C22.535 5 20.9997 5.632 19.733 6.896C18.4663 8.15967 17.833 9.69433 17.833 11.5V16.3ZM11.333 44C10.508 44 9.80184 43.7062 9.21451 43.1185C8.62684 42.5312 8.33301 41.825 8.33301 41V19.3C8.33301 18.475 8.62684 17.7687 9.21451 17.181C9.80184 16.5937 10.508 16.3 11.333 16.3H14.833V11.5C14.833 8.87167 15.7598 6.63133 17.6135 4.779C19.4668 2.92633 21.7085 2 24.3385 2C26.9682 2 29.208 2.92633 31.058 4.779C32.908 6.63133 33.833 8.87167 33.833 11.5V16.3H37.333C38.158 16.3 38.8643 16.5937 39.452 17.181C40.0393 17.7687 40.333 18.475 40.333 19.3V29.15C40.0663 29.0833 39.803 29.0417 39.543 29.025C39.2827 29.0083 39.0093 29 38.723 29C38.463 29 38.2247 29.0083 38.008 29.025C37.7913 29.0417 37.5663 29.0667 37.333 29.1V19.3H11.333V41H29.683C29.8497 41.5667 30.0497 42.0917 30.283 42.575C30.5163 43.0583 30.7997 43.5333 31.133 44H11.333ZM38.833 44C37.5997 44 36.5413 43.5583 35.658 42.675C34.7747 41.7917 34.333 40.7403 34.333 39.521C34.333 38.9403 34.433 38.3917 34.633 37.875C34.833 37.3583 35.1163 36.9 35.483 36.5L38.833 32.75L42.183 36.5C42.5497 36.9 42.833 37.3583 43.033 37.875C43.233 38.3917 43.333 38.9403 43.333 39.521C43.333 40.7403 42.898 41.7917 42.028 42.675C41.158 43.5583 40.093 44 38.833 44ZM24.3415 34C25.4025 34 26.308 33.6328 27.058 32.8985C27.808 32.1642 28.183 31.2813 28.183 30.25C28.183 29.25 27.8052 28.3417 27.0495 27.525C26.2938 26.7083 25.3855 26.3 24.3245 26.3C23.2635 26.3 22.358 26.7083 21.608 27.525C20.858 28.3417 20.483 29.2583 20.483 30.275C20.483 31.2917 20.8608 32.1667 21.6165 32.9C22.3722 33.6333 23.2805 34 24.3415 34Z" fill="#083649"/>
</g>
</g>
</svg>
